<mxfile host="app.diagrams.net" modified="2023-07-08T03:46:02.813Z" agent="Mozilla/5.0 (Windows NT 10.0; Win64; x64) AppleWebKit/537.36 (KHTML, like Gecko) Chrome/114.0.0.0 Safari/537.36" version="21.3.5" etag="cmsd7Mhf5KSUz8rO0nKK" type="github">
  <diagram name="第 1 页" id="rQr1-tZ_svewhdxyHdFh">
    <mxGraphModel>
      <root>
        <mxCell id="0" />
        <mxCell id="1" parent="0" />
      </root>
    </mxGraphModel>
  </diagram>
</mxfile>
